<svg id="그룹_37" data-name="그룹 37" xmlns="http://www.w3.org/2000/svg" width="142.88" height="19.119" viewBox="0 0 142.88 19.119">
  <defs>
    <style>
      .cls-1 {
        fill: none;
      }
    </style>
  </defs>
  <path id="패스_120" data-name="패스 120" class="cls-1" d="M-13255.37,6632.888a4.526,4.526,0,0,0,1.649,2.053,4.42,4.42,0,0,0,2.487.7,4.422,4.422,0,0,0,2.489-.7,4.526,4.526,0,0,0,1.649-2.053,6.739,6.739,0,0,0,.44-1.524h-9.156A6.689,6.689,0,0,0-13255.37,6632.888Z" transform="translate(13385.512 -6620.009)"/>
  <path id="패스_121" data-name="패스 121" class="cls-1" d="M-13248.744,6624.187a4.427,4.427,0,0,0-2.489-.7,4.425,4.425,0,0,0-2.487.7,4.525,4.525,0,0,0-1.649,2.053,6.824,6.824,0,0,0-.447,1.566h9.169a6.776,6.776,0,0,0-.446-1.566A4.525,4.525,0,0,0-13248.744,6624.187Z" transform="translate(13385.512 -6620.009)"/>
  <path id="패스_122" data-name="패스 122" class="cls-1" d="M-13276.019,6624.25a6.318,6.318,0,0,0-2.935-.618h-2.507v4.174h7.705a6.374,6.374,0,0,0-.471-1.63A3.964,3.964,0,0,0-13276.019,6624.25Z" transform="translate(13385.512 -6620.009)"/>
  <path id="패스_123" data-name="패스 123" class="cls-1" d="M-13359.576,6632.888a4.524,4.524,0,0,0,1.648,2.053,4.423,4.423,0,0,0,2.488.7,4.427,4.427,0,0,0,2.489-.7,4.524,4.524,0,0,0,1.648-2.053,6.789,6.789,0,0,0,.441-1.524h-9.157A6.738,6.738,0,0,0-13359.576,6632.888Z" transform="translate(13385.512 -6620.009)"/>
  <path id="패스_124" data-name="패스 124" class="cls-1" d="M-13352.95,6624.187a4.431,4.431,0,0,0-2.489-.7,4.428,4.428,0,0,0-2.488.7,4.523,4.523,0,0,0-1.648,2.053,6.776,6.776,0,0,0-.447,1.566h9.168a6.776,6.776,0,0,0-.446-1.566A4.523,4.523,0,0,0-13352.95,6624.187Z" transform="translate(13385.512 -6620.009)"/>
  <path id="패스_125" data-name="패스 125" class="cls-1" d="M-13300.116,6632.007a3.769,3.769,0,0,0,.467,1.889,3.36,3.36,0,0,0,1.322,1.3,4.045,4.045,0,0,0,1.99.472,4.038,4.038,0,0,0,1.993-.472,3.357,3.357,0,0,0,1.316-1.3,3.76,3.76,0,0,0,.469-1.889v-.643h-7.558Z" transform="translate(13385.512 -6620.009)"/>
  <path id="패스_126" data-name="패스 126" class="cls-1" d="M-13281.46,6635.5h2.5a6.3,6.3,0,0,0,2.938-.622,3.976,3.976,0,0,0,1.8-1.935,6.25,6.25,0,0,0,.462-1.574h-7.7Z" transform="translate(13385.512 -6620.009)"/>
  <rect id="사각형_84" data-name="사각형 84" width="3.933" height="7.543" transform="translate(0 0.254)"/>
  <path id="패스_127" data-name="패스 127" d="M-13385.512,6638.865h11.907v-3.243h-7.975v-4.258h-3.933Z" transform="translate(13385.512 -6620.009)"/>
  <rect id="사각형_85" data-name="사각형 85" width="3.933" height="7.501" transform="translate(14.514 11.355)"/>
  <rect id="사각형_86" data-name="사각형 86" width="3.933" height="7.543" transform="translate(14.514 0.254)"/>
  <path id="패스_128" data-name="패스 128" d="M-13359.576,6626.24a4.523,4.523,0,0,1,1.648-2.053,4.428,4.428,0,0,1,2.488-.7,4.431,4.431,0,0,1,2.489.7,4.523,4.523,0,0,1,1.648,2.053,6.776,6.776,0,0,1,.446,1.566h4.018a9.722,9.722,0,0,0-1.039-3.419,8.006,8.006,0,0,0-3.125-3.257,8.835,8.835,0,0,0-4.437-1.121,8.844,8.844,0,0,0-4.45,1.121,7.978,7.978,0,0,0-3.115,3.257,9.72,9.72,0,0,0-1.035,3.419h4.017A6.776,6.776,0,0,1-13359.576,6626.24Z" transform="translate(13385.512 -6620.009)"/>
  <path id="패스_129" data-name="패스 129" d="M-13351.3,6632.888a4.524,4.524,0,0,1-1.648,2.053,4.427,4.427,0,0,1-2.489.7,4.423,4.423,0,0,1-2.488-.7,4.524,4.524,0,0,1-1.648-2.053,6.738,6.738,0,0,1-.441-1.524h-4.017a9.715,9.715,0,0,0,1.029,3.368,8.015,8.015,0,0,0,3.115,3.261,8.807,8.807,0,0,0,4.45,1.126A8.825,8.825,0,0,0-13351,6638a8.005,8.005,0,0,0,3.125-3.256,9.711,9.711,0,0,0,1.033-3.377h-4.017A6.789,6.789,0,0,1-13351.3,6632.888Z" transform="translate(13385.512 -6620.009)"/>
  <path id="패스_130" data-name="패스 130" d="M-13329.186,6631.762a2.875,2.875,0,0,1,1.072.727,1.561,1.561,0,0,1,.368,1.053,1.866,1.866,0,0,1-.409,1.19,2.654,2.654,0,0,1-1.148.808,4.752,4.752,0,0,1-1.74.291,4.985,4.985,0,0,1-1.821-.313,2.891,2.891,0,0,1-1.28-.936,2.821,2.821,0,0,1-.54-1.558h-3.807a6.057,6.057,0,0,0,.978,3.365,5.691,5.691,0,0,0,2.6,2.049,10.2,10.2,0,0,0,3.919.69,9.893,9.893,0,0,0,3.882-.686,5.53,5.53,0,0,0,2.472-1.934,5.14,5.14,0,0,0,.867-2.957,4.985,4.985,0,0,0-.422-2.062c-.02-.043-.045-.083-.065-.125h-6.083A9.593,9.593,0,0,1-13329.186,6631.762Z" transform="translate(13385.512 -6620.009)"/>
  <path id="패스_131" data-name="패스 131" d="M-13331.025,6627.684a9.385,9.385,0,0,1-1.144-.332,4.523,4.523,0,0,1-.944-.463,2.094,2.094,0,0,1-.641-.641,1.5,1.5,0,0,1-.213-.872,1.758,1.758,0,0,1,.349-1.071,2.3,2.3,0,0,1,1.013-.741,4.374,4.374,0,0,1,1.627-.267,3.717,3.717,0,0,1,2.243.608,2.3,2.3,0,0,1,.936,1.708h3.769a5.2,5.2,0,0,0-.89-2.925,5.722,5.722,0,0,0-2.411-1.971,8.641,8.641,0,0,0-3.62-.708,8.894,8.894,0,0,0-3.633.708,6.018,6.018,0,0,0-2.511,1.971,4.85,4.85,0,0,0-.9,2.952,4.558,4.558,0,0,0,.485,2.166h7Z" transform="translate(13385.512 -6620.009)"/>
  <path id="패스_132" data-name="패스 132" d="M-13312.269,6623.505h5.694v-3.243h-15.277v3.243h5.7v4.3h3.888Z" transform="translate(13385.512 -6620.009)"/>
  <rect id="사각형_87" data-name="사각형 87" width="3.888" height="7.501" transform="translate(69.355 11.355)"/>
  <rect id="사각형_88" data-name="사각형 88" width="3.933" height="7.543" transform="translate(81.463 0.254)"/>
  <path id="패스_133" data-name="패스 133" d="M-13292.559,6632.007a3.76,3.76,0,0,1-.469,1.889,3.357,3.357,0,0,1-1.316,1.3,4.038,4.038,0,0,1-1.993.472,4.045,4.045,0,0,1-1.99-.472,3.36,3.36,0,0,1-1.322-1.3,3.769,3.769,0,0,1-.467-1.889v-.643h-3.933v.979a6.535,6.535,0,0,0,.963,3.561,6.463,6.463,0,0,0,2.7,2.375,9.111,9.111,0,0,0,4.052.849,9.087,9.087,0,0,0,4.041-.849,6.515,6.515,0,0,0,2.7-2.375,6.52,6.52,0,0,0,.967-3.561v-.979h-3.933Z" transform="translate(13385.512 -6620.009)"/>
  <rect id="사각형_89" data-name="사각형 89" width="3.933" height="7.543" transform="translate(92.952 0.254)"/>
  <path id="패스_134" data-name="패스 134" d="M-13274.226,6632.938a3.976,3.976,0,0,1-1.8,1.935,6.3,6.3,0,0,1-2.937.622h-2.5v-4.131h-3.933v7.5h6.594a10.005,10.005,0,0,0,4.873-1.117,7.6,7.6,0,0,0,3.134-3.207,9.579,9.579,0,0,0,.972-3.177h-3.943A6.25,6.25,0,0,1-13274.226,6632.938Z" transform="translate(13385.512 -6620.009)"/>
  <path id="패스_135" data-name="패스 135" d="M-13281.46,6623.632h2.507a6.318,6.318,0,0,1,2.935.618,3.964,3.964,0,0,1,1.793,1.926,6.374,6.374,0,0,1,.471,1.63h3.945a9.576,9.576,0,0,0-.982-3.238,7.6,7.6,0,0,0-3.12-3.192,9.886,9.886,0,0,0-4.832-1.113h-6.648v7.543h3.933Z" transform="translate(13385.512 -6620.009)"/>
  <rect id="사각형_90" data-name="사각형 90" width="3.933" height="7.501" transform="translate(118.72 11.355)"/>
  <rect id="사각형_91" data-name="사각형 91" width="3.933" height="7.543" transform="translate(118.72 0.254)"/>
  <path id="패스_136" data-name="패스 136" d="M-13247.095,6632.888a4.526,4.526,0,0,1-1.649,2.053,4.422,4.422,0,0,1-2.489.7,4.42,4.42,0,0,1-2.487-.7,4.526,4.526,0,0,1-1.649-2.053,6.689,6.689,0,0,1-.44-1.524h-4.017a9.694,9.694,0,0,0,1.028,3.368,8.011,8.011,0,0,0,3.116,3.261,8.8,8.8,0,0,0,4.449,1.126,8.823,8.823,0,0,0,4.438-1.122,8,8,0,0,0,3.125-3.256,9.712,9.712,0,0,0,1.034-3.377h-4.018A6.739,6.739,0,0,1-13247.095,6632.888Z" transform="translate(13385.512 -6620.009)"/>
  <path id="패스_137" data-name="패스 137" d="M-13255.37,6626.24a4.525,4.525,0,0,1,1.649-2.053,4.425,4.425,0,0,1,2.487-.7,4.427,4.427,0,0,1,2.489.7,4.525,4.525,0,0,1,1.649,2.053,6.776,6.776,0,0,1,.446,1.566h4.017a9.7,9.7,0,0,0-1.039-3.419,8,8,0,0,0-3.125-3.257,8.832,8.832,0,0,0-4.437-1.121,8.84,8.84,0,0,0-4.449,1.121,7.974,7.974,0,0,0-3.116,3.257,9.74,9.74,0,0,0-1.034,3.419h4.016A6.824,6.824,0,0,1-13255.37,6626.24Z" transform="translate(13385.512 -6620.009)"/>
</svg>
